<svg id="kity_svg_6" xmlns="http://www.w3.org/2000/svg" xmlns:xlink="http://www.w3.org/1999/xlink" version="1.1" width="729" height="1334" style="background: rgb(251, 251, 251); visibility: visible;" viewBox="0 0 729 1334"><defs id="kity_defs_7"><linearGradient id="kity_linearGradient_17" x1="0" y1="0" x2="0" y2="1"><stop id="kity_stop_18" offset="0" stop-color="rgb(255, 255, 255)"></stop><stop id="kity_stop_19" offset="1" stop-color="rgb(204, 204, 204)"></stop></linearGradient><marker id="kity_marker_2" orient="auto" refX="6" refY="0" viewBox="-7 -7 14 14" markerWidth="7" markerHeight="7" markerUnits="userSpaceOnUse"><path id="kity_path_3" fill="rgb(115, 161, 191)" stroke="none" d="M6,0A6,6,0,1,1,-6,0A6,6,0,1,1,6,0"></path></marker></defs><g id="kity_g_8"><g id="minder1" text-rendering="optimize-speed"><g id="minder_connect_group1"><path id="kity_path_31" fill="none" stroke="rgb(115, 161, 191)" stroke-width="1" d="M97,667.5A194.5,634,0,0,1,291.5,33.5"></path><path id="kity_path_33" fill="none" stroke="rgb(115, 161, 191)" stroke-width="1" d="M370.5,33.5C390.5,33.5,390.5,33.5,410.5,33.5"></path><path id="kity_path_35" fill="none" stroke="rgb(115, 161, 191)" stroke-width="1" d="M97,667.5A194.5,568,0,0,1,291.5,99.5"></path><path id="kity_path_37" fill="none" stroke="rgb(115, 161, 191)" stroke-width="1" d="M377.5,99.5C397.5,99.5,397.5,99.5,417.5,99.5"></path><path id="kity_path_39" fill="none" stroke="rgb(115, 161, 191)" stroke-width="1" d="M97,667.5A194.5,172,0,0,1,291.5,495.5"></path><path id="kity_path_45" fill="none" stroke="rgb(115, 161, 191)" stroke-width="1" d="M347.5,495.5C367.5,495.5,367.5,190.5,387.5,190.5"></path><path id="kity_path_47" fill="none" stroke="rgb(115, 161, 191)" stroke-width="1" d="M446.5,190.5C466.5,190.5,466.5,164.5,486.5,164.5"></path><path id="kity_path_49" fill="none" stroke="rgb(115, 161, 191)" stroke-width="1" d="M446.5,190.5C466.5,190.5,466.5,216.5,486.5,216.5"></path><path id="kity_path_51" fill="none" stroke="rgb(115, 161, 191)" stroke-width="1" d="M347.5,495.5C367.5,495.5,367.5,294.5,387.5,294.5"></path><path id="kity_path_53" fill="none" stroke="rgb(115, 161, 191)" stroke-width="1" d="M444.5,294.5C464.5,294.5,464.5,294.5,484.5,294.5"></path><path id="kity_path_55" fill="none" stroke="rgb(115, 161, 191)" stroke-width="1" d="M556.5,294.5C576.5,294.5,576.5,268.5,596.5,268.5"></path><path id="kity_path_57" fill="none" stroke="rgb(115, 161, 191)" stroke-width="1" d="M556.5,294.5C576.5,294.5,576.5,320.5,596.5,320.5"></path><path id="kity_path_59" fill="none" stroke="rgb(115, 161, 191)" stroke-width="1" d="M347.5,495.5C367.5,495.5,367.5,398.5,387.5,398.5"></path><path id="kity_path_61" fill="none" stroke="rgb(115, 161, 191)" stroke-width="1" d="M473.5,398.5C493.5,398.5,493.5,372.5,513.5,372.5"></path><path id="kity_path_63" fill="none" stroke="rgb(115, 161, 191)" stroke-width="1" d="M473.5,398.5C493.5,398.5,493.5,424.5,513.5,424.5"></path><path id="kity_path_65" fill="none" stroke="rgb(115, 161, 191)" stroke-width="1" d="M347.5,495.5C367.5,495.5,367.5,528.5,387.5,528.5"></path><path id="kity_path_67" fill="none" stroke="rgb(115, 161, 191)" stroke-width="1" d="M431.5,528.5C451.5,528.5,451.5,528.5,471.5,528.5"></path><path id="kity_path_71" fill="none" stroke="rgb(115, 161, 191)" stroke-width="1" d="M544.5,528.5C564.5,528.5,564.5,476.5,584.5,476.5"></path><path id="kity_path_73" fill="none" stroke="rgb(115, 161, 191)" stroke-width="1" d="M544.5,528.5C564.5,528.5,564.5,528.5,584.5,528.5"></path><path id="kity_path_75" fill="none" stroke="rgb(115, 161, 191)" stroke-width="1" d="M544.5,528.5C564.5,528.5,564.5,580.5,584.5,580.5"></path><path id="kity_path_77" fill="none" stroke="rgb(115, 161, 191)" stroke-width="1" d="M347.5,495.5C367.5,495.5,367.5,632.5,387.5,632.5"></path><path id="kity_path_79" fill="none" stroke="rgb(115, 161, 191)" stroke-width="1" d="M445.5,632.5C465.5,632.5,465.5,632.5,485.5,632.5"></path><path id="kity_path_81" fill="none" stroke="rgb(115, 161, 191)" stroke-width="1" d="M347.5,495.5C367.5,495.5,367.5,801.5,387.5,801.5"></path><path id="kity_path_83" fill="none" stroke="rgb(115, 161, 191)" stroke-width="1" d="M444.5,801.5C464.5,801.5,464.5,736.5,484.5,736.5"></path><path id="kity_path_87" fill="none" stroke="rgb(115, 161, 191)" stroke-width="1" d="M557.5,736.5C577.5,736.5,577.5,684.5,597.5,684.5"></path><path id="kity_path_89" fill="none" stroke="rgb(115, 161, 191)" stroke-width="1" d="M557.5,736.5C577.5,736.5,577.5,736.5,597.5,736.5"></path><path id="kity_path_91" fill="none" stroke="rgb(115, 161, 191)" stroke-width="1" d="M557.5,736.5C577.5,736.5,577.5,788.5,597.5,788.5"></path><path id="kity_path_93" fill="none" stroke="rgb(115, 161, 191)" stroke-width="1" d="M444.5,801.5C464.5,801.5,464.5,866.5,484.5,866.5"></path><path id="kity_path_95" fill="none" stroke="rgb(115, 161, 191)" stroke-width="1" d="M601.5,866.5C621.5,866.5,621.5,840.5,641.5,840.5"></path><path id="kity_path_97" fill="none" stroke="rgb(115, 161, 191)" stroke-width="1" d="M601.5,866.5C621.5,866.5,621.5,892.5,641.5,892.5"></path><path id="kity_path_99" fill="none" stroke="rgb(115, 161, 191)" stroke-width="1" d="M97,667.5A194.5,338,0,0,0,291.5,1005.5"></path><path id="kity_path_101" fill="none" stroke="rgb(115, 161, 191)" stroke-width="1" d="M350.5,1005.5C370.5,1005.5,370.5,953.5,390.5,953.5"></path><path id="kity_path_103" fill="none" stroke="rgb(115, 161, 191)" stroke-width="1" d="M350.5,1005.5C370.5,1005.5,370.5,1005.5,390.5,1005.5"></path><path id="kity_path_105" fill="none" stroke="rgb(115, 161, 191)" stroke-width="1" d="M350.5,1005.5C370.5,1005.5,370.5,1057.5,390.5,1057.5"></path><path id="kity_path_107" fill="none" stroke="rgb(115, 161, 191)" stroke-width="1" d="M97,667.5A194.5,454,0,0,0,291.5,1121.5"></path><path id="kity_path_109" fill="none" stroke="rgb(115, 161, 191)" stroke-width="1" d="M97,667.5A194.5,544,0,0,0,291.5,1211.5"></path><path id="kity_path_111" fill="none" stroke="rgb(115, 161, 191)" stroke-width="1" d="M385.5,1211.5C405.5,1211.5,405.5,1211.5,425.5,1211.5"></path><path id="kity_path_113" fill="none" stroke="rgb(115, 161, 191)" stroke-width="1" d="M498.5,1211.5C518.5,1211.5,518.5,1185.5,538.5,1185.5"></path><path id="kity_path_115" fill="none" stroke="rgb(115, 161, 191)" stroke-width="1" d="M498.5,1211.5C518.5,1211.5,518.5,1237.5,538.5,1237.5"></path><path id="kity_path_117" fill="none" stroke="rgb(115, 161, 191)" stroke-width="1" d="M97,667.5A194.5,634,0,0,0,291.5,1301.5"></path></g><g id="minder_node1"><path id="node_outline1" fill="rgb(115, 161, 191)" stroke="rgb(115, 161, 191)" d="M25.5,647.5h143a5,5,0,0,1,5,5v30a5,5,0,0,1,-5,5h-143a5,5,0,0,1,-5,-5v-30a5,5,0,0,1,5,-5z" stroke-width="3"></path><g id="node_text1" fill="white"><text id="kity_text_22" text-rendering="inherit" font-size="16" dy=".8em" y="659.5" x="44.5">seata-golang</text></g></g><g id="kity_g_12"><path id="kity_path_13" fill="none" stroke="none" d="M44.5,667.5h0v0h0z"></path></g><g id="kity_g_14"><path id="kity_path_15" fill="none" stroke="none" d="M44.5,667.5h0v0h0z"></path><path id="kity_path_16" fill="none" stroke="none"></path></g><g id="minder_node2"><g id="node_expander2" style="cursor: pointer;"><path id="kity_path_254" fill="white" stroke="gray" d="M292.5,33.5A6,6,0,1,1,280.5,33.5A6,6,0,1,1,292.5,33.5"></path><path id="kity_path_255" fill="none" stroke="gray" d="M282,33.5L291,33.5"></path></g><path id="node_outline3" fill="rgb(238, 243, 246)" stroke="rgb(115, 161, 191)" d="M296.5,20.5h71a3,3,0,0,1,3,3v20a3,3,0,0,1,-3,3h-71a3,3,0,0,1,-3,-3v-20a3,3,0,0,1,3,-3z" stroke-width="1"></path><g id="node_text3" fill="black"><text id="kity_text_121" text-rendering="inherit" font-size="14" dy=".8em" y="26.5" x="313.5">meta</text></g></g><g id="minder_node3"><g id="node_expander1" style="cursor: pointer;" display="none"><path id="kity_path_251" fill="white" stroke="gray" d="M410.5,33.5A6,6,0,1,1,398.5,33.5A6,6,0,1,1,410.5,33.5"></path><path id="kity_path_252" fill="none" stroke="gray"></path></g><path id="node_outline2" fill="none" stroke="none" d="M415.5,22.5h46a5,5,0,0,1,5,5v12a5,5,0,0,1,-5,5h-46a5,5,0,0,1,-5,-5v-12a5,5,0,0,1,5,-5z"></path><g id="node_text2" fill="black"><text id="kity_text_119" text-rendering="inherit" font-size="12" dy=".8em" y="27.5" x="420.5">枚举等</text></g></g><g id="minder_node4"><g id="node_expander4" style="cursor: pointer;"><path id="kity_path_260" fill="white" stroke="gray" d="M292.5,99.5A6,6,0,1,1,280.5,99.5A6,6,0,1,1,292.5,99.5"></path><path id="kity_path_261" fill="none" stroke="gray" d="M282,99.5L291,99.5"></path></g><path id="node_outline5" fill="rgb(238, 243, 246)" stroke="rgb(115, 161, 191)" d="M296.5,86.5h78a3,3,0,0,1,3,3v20a3,3,0,0,1,-3,3h-78a3,3,0,0,1,-3,-3v-20a3,3,0,0,1,3,-3z" stroke-width="1"></path><g id="node_text5" fill="black"><text id="kity_text_125" text-rendering="inherit" font-size="14" dy=".8em" y="92.5" x="313.5">model</text></g></g><g id="minder_node5"><g id="node_expander3" style="cursor: pointer;" display="none"><path id="kity_path_257" fill="white" stroke="gray" d="M417.5,99.5A6,6,0,1,1,405.5,99.5A6,6,0,1,1,417.5,99.5"></path><path id="kity_path_258" fill="none" stroke="gray"></path></g><path id="node_outline4" fill="none" stroke="none" d="M422.5,88.5h60a5,5,0,0,1,5,5v12a5,5,0,0,1,-5,5h-60a5,5,0,0,1,-5,-5v-12a5,5,0,0,1,5,-5z"></path><g id="node_text4" fill="black"><text id="kity_text_123" text-rendering="inherit" font-size="12" dy=".8em" y="93.5" x="427.5">resource</text></g></g><g id="minder_node6"><g id="node_expander34" style="cursor: pointer;"><path id="kity_path_350" fill="white" stroke="gray" d="M292.5,495.5A6,6,0,1,1,280.5,495.5A6,6,0,1,1,292.5,495.5"></path><path id="kity_path_351" fill="none" stroke="gray" d="M282,495.5L291,495.5"></path></g><path id="node_outline35" fill="rgb(238, 243, 246)" stroke="rgb(115, 161, 191)" d="M296.5,482.5h48a3,3,0,0,1,3,3v20a3,3,0,0,1,-3,3h-48a3,3,0,0,1,-3,-3v-20a3,3,0,0,1,3,-3z" stroke-width="1"></path><g id="node_text35" fill="black"><text id="kity_text_185" text-rendering="inherit" font-size="14" dy=".8em" y="488.5" x="313.5">tc</text></g></g><g id="minder_node9"><g id="node_expander9" style="cursor: pointer;"><path id="kity_path_275" fill="white" stroke="gray" d="M387.5,190.5A6,6,0,1,1,375.5,190.5A6,6,0,1,1,387.5,190.5"></path><path id="kity_path_276" fill="none" stroke="gray" d="M377,190.5L386,190.5"></path></g><path id="node_outline10" fill="none" stroke="none" d="M392.5,179.5h49a5,5,0,0,1,5,5v12a5,5,0,0,1,-5,5h-49a5,5,0,0,1,-5,-5v-12a5,5,0,0,1,5,-5z" stroke-width="3"></path><g id="node_text10" fill="black"><text id="kity_text_135" text-rendering="inherit" font-size="12" dy=".8em" y="184.5" x="397.5">session</text></g></g><g id="minder_node10"><g id="node_expander7" style="cursor: pointer;" display="none"><path id="kity_path_269" fill="white" stroke="gray" d="M486.5,164.5A6,6,0,1,1,474.5,164.5A6,6,0,1,1,486.5,164.5"></path><path id="kity_path_270" fill="none" stroke="gray"></path></g><path id="node_outline8" fill="none" stroke="none" d="M491.5,153.5h95a5,5,0,0,1,5,5v12a5,5,0,0,1,-5,5h-95a5,5,0,0,1,-5,-5v-12a5,5,0,0,1,5,-5z"></path><g id="node_text8" fill="black"><text id="kity_text_131" text-rendering="inherit" font-size="12" dy=".8em" y="158.5" x="496.5">branch session</text></g></g><g id="minder_node11"><g id="node_expander8" style="cursor: pointer;" display="none"><path id="kity_path_272" fill="white" stroke="gray" d="M486.5,216.5A6,6,0,1,1,474.5,216.5A6,6,0,1,1,486.5,216.5"></path><path id="kity_path_273" fill="none" stroke="gray"></path></g><path id="node_outline9" fill="none" stroke="none" d="M491.5,205.5h89a5,5,0,0,1,5,5v12a5,5,0,0,1,-5,5h-89a5,5,0,0,1,-5,-5v-12a5,5,0,0,1,5,-5z"></path><g id="node_text9" fill="black"><text id="kity_text_133" text-rendering="inherit" font-size="12" dy=".8em" y="210.5" x="496.5">global session</text></g></g><g id="minder_node12"><g id="node_expander13" style="cursor: pointer;"><path id="kity_path_287" fill="white" stroke="gray" d="M387.5,294.5A6,6,0,1,1,375.5,294.5A6,6,0,1,1,387.5,294.5"></path><path id="kity_path_288" fill="none" stroke="gray" d="M377,294.5L386,294.5"></path></g><path id="node_outline14" fill="none" stroke="none" d="M392.5,283.5h47a5,5,0,0,1,5,5v12a5,5,0,0,1,-5,5h-47a5,5,0,0,1,-5,-5v-12a5,5,0,0,1,5,-5z"></path><g id="node_text14" fill="black"><text id="kity_text_143" text-rendering="inherit" font-size="12" dy=".8em" y="288.5" x="397.5">config</text></g></g><g id="minder_node13"><g id="node_expander12" style="cursor: pointer;"><path id="kity_path_284" fill="white" stroke="gray" d="M484.5,294.5A6,6,0,1,1,472.5,294.5A6,6,0,1,1,484.5,294.5"></path><path id="kity_path_285" fill="none" stroke="gray" d="M474,294.5L483,294.5"></path></g><path id="node_outline13" fill="none" stroke="none" d="M489.5,283.5h62a5,5,0,0,1,5,5v12a5,5,0,0,1,-5,5h-62a5,5,0,0,1,-5,-5v-12a5,5,0,0,1,5,-5z"></path><g id="node_text13" fill="black"><text id="kity_text_141" text-rendering="inherit" font-size="12" dy=".8em" y="288.5" x="494.5">tc config</text></g></g><g id="minder_node14"><g id="node_expander10" style="cursor: pointer;" display="none"><path id="kity_path_278" fill="white" stroke="gray" d="M596.5,268.5A6,6,0,1,1,584.5,268.5A6,6,0,1,1,596.5,268.5"></path><path id="kity_path_279" fill="none" stroke="gray"></path></g><path id="node_outline11" fill="none" stroke="none" d="M601.5,257.5h74a5,5,0,0,1,5,5v12a5,5,0,0,1,-5,5h-74a5,5,0,0,1,-5,-5v-12a5,5,0,0,1,5,-5z"></path><g id="node_text11" fill="black"><text id="kity_text_137" text-rendering="inherit" font-size="12" dy=".8em" y="262.5" x="606.5">lock config</text></g></g><g id="minder_node15"><g id="node_expander11" style="cursor: pointer;" display="none"><path id="kity_path_281" fill="white" stroke="gray" d="M596.5,320.5A6,6,0,1,1,584.5,320.5A6,6,0,1,1,596.5,320.5"></path><path id="kity_path_282" fill="none" stroke="gray"></path></g><path id="node_outline12" fill="none" stroke="none" d="M601.5,309.5h78a5,5,0,0,1,5,5v12a5,5,0,0,1,-5,5h-78a5,5,0,0,1,-5,-5v-12a5,5,0,0,1,5,-5z"></path><g id="node_text12" fill="black"><text id="kity_text_139" text-rendering="inherit" font-size="12" dy=".8em" y="314.5" x="606.5">store config</text></g></g><g id="minder_node16"><g id="node_expander16" style="cursor: pointer;"><path id="kity_path_296" fill="white" stroke="gray" d="M387.5,398.5A6,6,0,1,1,375.5,398.5A6,6,0,1,1,387.5,398.5"></path><path id="kity_path_297" fill="none" stroke="gray" d="M377,398.5L386,398.5"></path></g><path id="node_outline17" fill="none" stroke="none" d="M392.5,387.5h76a5,5,0,0,1,5,5v12a5,5,0,0,1,-5,5h-76a5,5,0,0,1,-5,-5v-12a5,5,0,0,1,5,-5z"></path><g id="node_text17" fill="black"><text id="kity_text_149" text-rendering="inherit" font-size="12" dy=".8em" y="392.5" x="397.5">constructor</text></g></g><g id="minder_node17"><g id="node_expander14" style="cursor: pointer;" display="none"><path id="kity_path_290" fill="white" stroke="gray" d="M513.5,372.5A6,6,0,1,1,501.5,372.5A6,6,0,1,1,513.5,372.5"></path><path id="kity_path_291" fill="none" stroke="gray"></path></g><path id="node_outline15" fill="none" stroke="none" d="M518.5,361.5h173a5,5,0,0,1,5,5v12a5,5,0,0,1,-5,5h-173a5,5,0,0,1,-5,-5v-12a5,5,0,0,1,5,-5z"></path><g id="node_text15" fill="black"><text id="kity_text_145" text-rendering="inherit" font-size="12" dy=".8em" y="366.5" x="523.5">branch session lock channel</text></g></g><g id="minder_node18"><g id="node_expander15" style="cursor: pointer;" display="none"><path id="kity_path_293" fill="white" stroke="gray" d="M513.5,424.5A6,6,0,1,1,501.5,424.5A6,6,0,1,1,513.5,424.5"></path><path id="kity_path_294" fill="none" stroke="gray"></path></g><path id="node_outline16" fill="none" stroke="none" d="M518.5,413.5h168a5,5,0,0,1,5,5v12a5,5,0,0,1,-5,5h-168a5,5,0,0,1,-5,-5v-12a5,5,0,0,1,5,-5z"></path><g id="node_text16" fill="black"><text id="kity_text_147" text-rendering="inherit" font-size="12" dy=".8em" y="418.5" x="523.5">global session lock channel</text></g></g><g id="minder_node19"><g id="node_expander22" style="cursor: pointer;"><path id="kity_path_314" fill="white" stroke="gray" d="M387.5,528.5A6,6,0,1,1,375.5,528.5A6,6,0,1,1,387.5,528.5"></path><path id="kity_path_315" fill="none" stroke="gray" d="M377,528.5L386,528.5"></path></g><path id="node_outline23" fill="none" stroke="none" d="M392.5,517.5h34a5,5,0,0,1,5,5v12a5,5,0,0,1,-5,5h-34a5,5,0,0,1,-5,-5v-12a5,5,0,0,1,5,-5z"></path><g id="node_text23" fill="black"><text id="kity_text_161" text-rendering="inherit" font-size="12" dy=".8em" y="522.5" x="397.5">lock</text></g></g><g id="minder_node20"><g id="node_expander21" style="cursor: pointer;"><path id="kity_path_311" fill="white" stroke="gray" d="M471.5,528.5A6,6,0,1,1,459.5,528.5A6,6,0,1,1,471.5,528.5"></path><path id="kity_path_312" fill="none" stroke="gray" d="M461,528.5L470,528.5"></path></g><path id="node_outline22" fill="none" stroke="none" d="M476.5,517.5h63a5,5,0,0,1,5,5v12a5,5,0,0,1,-5,5h-63a5,5,0,0,1,-5,-5v-12a5,5,0,0,1,5,-5z"></path><g id="node_text22" fill="black"><text id="kity_text_159" text-rendering="inherit" font-size="12" dy=".8em" y="522.5" x="481.5">interface</text></g></g><g id="minder_node22"><g id="node_expander18" style="cursor: pointer;" display="none"><path id="kity_path_302" fill="white" stroke="gray" d="M584.5,476.5A6,6,0,1,1,572.5,476.5A6,6,0,1,1,584.5,476.5"></path><path id="kity_path_303" fill="none" stroke="gray"></path></g><path id="node_outline19" fill="none" stroke="rgb(57, 80, 96)" d="M589.5,465.5h85a5,5,0,0,1,5,5v12a5,5,0,0,1,-5,5h-85a5,5,0,0,1,-5,-5v-12a5,5,0,0,1,5,-5z" stroke-width="3"></path><g id="node_text19" fill="black"><text id="kity_text_153" text-rendering="inherit" font-size="12" dy=".8em" y="470.5" x="594.5">memory lock</text></g></g><g id="minder_node23"><g id="node_expander19" style="cursor: pointer;" display="none"><path id="kity_path_305" fill="white" stroke="gray" d="M584.5,528.5A6,6,0,1,1,572.5,528.5A6,6,0,1,1,584.5,528.5"></path><path id="kity_path_306" fill="none" stroke="gray"></path></g><path id="node_outline20" fill="none" stroke="none" d="M589.5,517.5h65a5,5,0,0,1,5,5v12a5,5,0,0,1,-5,5h-65a5,5,0,0,1,-5,-5v-12a5,5,0,0,1,5,-5z"></path><g id="node_text20" fill="black"><text id="kity_text_155" text-rendering="inherit" font-size="12" dy=".8em" y="522.5" x="594.5">etcd lock</text></g></g><g id="minder_node24"><g id="node_expander20" style="cursor: pointer;" display="none"><path id="kity_path_308" fill="white" stroke="gray" d="M584.5,580.5A6,6,0,1,1,572.5,580.5A6,6,0,1,1,584.5,580.5"></path><path id="kity_path_309" fill="none" stroke="gray"></path></g><path id="node_outline21" fill="none" stroke="none" d="M589.5,569.5h53a5,5,0,0,1,5,5v12a5,5,0,0,1,-5,5h-53a5,5,0,0,1,-5,-5v-12a5,5,0,0,1,5,-5z"></path><g id="node_text21" fill="black"><text id="kity_text_157" text-rendering="inherit" font-size="12" dy=".8em" y="574.5" x="594.5">db lock</text></g></g><g id="minder_node25"><g id="node_expander24" style="cursor: pointer;"><path id="kity_path_320" fill="white" stroke="gray" d="M387.5,632.5A6,6,0,1,1,375.5,632.5A6,6,0,1,1,387.5,632.5"></path><path id="kity_path_321" fill="none" stroke="gray" d="M377,632.5L386,632.5"></path></g><path id="node_outline25" fill="none" stroke="none" d="M392.5,621.5h48a5,5,0,0,1,5,5v12a5,5,0,0,1,-5,5h-48a5,5,0,0,1,-5,-5v-12a5,5,0,0,1,5,-5z"></path><g id="node_text25" fill="black"><text id="kity_text_165" text-rendering="inherit" font-size="12" dy=".8em" y="626.5" x="397.5">model</text></g></g><g id="minder_node26"><g id="node_expander23" style="cursor: pointer;" display="none"><path id="kity_path_317" fill="white" stroke="gray" d="M485.5,632.5A6,6,0,1,1,473.5,632.5A6,6,0,1,1,485.5,632.5"></path><path id="kity_path_318" fill="none" stroke="gray"></path></g><path id="node_outline24" fill="none" stroke="none" d="M490.5,621.5h108a5,5,0,0,1,5,5v12a5,5,0,0,1,-5,5h-108a5,5,0,0,1,-5,-5v-12a5,5,0,0,1,5,-5z"></path><g id="node_text24" fill="black"><text id="kity_text_163" text-rendering="inherit" font-size="12" dy=".8em" y="626.5" x="495.5">session condition</text></g></g><g id="minder_node27"><g id="node_expander33" style="cursor: pointer;"><path id="kity_path_347" fill="white" stroke="gray" d="M387.5,801.5A6,6,0,1,1,375.5,801.5A6,6,0,1,1,387.5,801.5"></path><path id="kity_path_348" fill="none" stroke="gray" d="M377,801.5L386,801.5"></path></g><path id="node_outline34" fill="none" stroke="none" d="M392.5,790.5h47a5,5,0,0,1,5,5v12a5,5,0,0,1,-5,5h-47a5,5,0,0,1,-5,-5v-12a5,5,0,0,1,5,-5z" stroke-width="3"></path><g id="node_text34" fill="black"><text id="kity_text_183" text-rendering="inherit" font-size="12" dy=".8em" y="795.5" x="397.5">holder</text></g></g><g id="minder_node28"><g id="node_expander29" style="cursor: pointer;"><path id="kity_path_335" fill="white" stroke="gray" d="M484.5,736.5A6,6,0,1,1,472.5,736.5A6,6,0,1,1,484.5,736.5"></path><path id="kity_path_336" fill="none" stroke="gray" d="M474,736.5L483,736.5"></path></g><path id="node_outline30" fill="none" stroke="none" d="M489.5,725.5h63a5,5,0,0,1,5,5v12a5,5,0,0,1,-5,5h-63a5,5,0,0,1,-5,-5v-12a5,5,0,0,1,5,-5z"></path><g id="node_text30" fill="black"><text id="kity_text_175" text-rendering="inherit" font-size="12" dy=".8em" y="730.5" x="494.5">interface</text></g></g><g id="minder_node30"><g id="node_expander26" style="cursor: pointer;" display="none"><path id="kity_path_326" fill="white" stroke="gray" d="M597.5,684.5A6,6,0,1,1,585.5,684.5A6,6,0,1,1,597.5,684.5"></path><path id="kity_path_327" fill="none" stroke="gray"></path></g><path id="node_outline27" fill="none" stroke="none" d="M602.5,673.5h57a5,5,0,0,1,5,5v12a5,5,0,0,1,-5,5h-57a5,5,0,0,1,-5,-5v-12a5,5,0,0,1,5,-5z" stroke-width="3"></path><g id="node_text27" fill="black"><text id="kity_text_169" text-rendering="inherit" font-size="12" dy=".8em" y="678.5" x="607.5">file store</text></g></g><g id="minder_node31"><g id="node_expander27" style="cursor: pointer;" display="none"><path id="kity_path_329" fill="white" stroke="gray" d="M597.5,736.5A6,6,0,1,1,585.5,736.5A6,6,0,1,1,597.5,736.5"></path><path id="kity_path_330" fill="none" stroke="gray"></path></g><path id="node_outline28" fill="none" stroke="none" d="M602.5,725.5h57a5,5,0,0,1,5,5v12a5,5,0,0,1,-5,5h-57a5,5,0,0,1,-5,-5v-12a5,5,0,0,1,5,-5z"></path><g id="node_text28" fill="black"><text id="kity_text_171" text-rendering="inherit" font-size="12" dy=".8em" y="730.5" x="607.5">db store</text></g></g><g id="minder_node32"><g id="node_expander28" style="cursor: pointer;" display="none"><path id="kity_path_332" fill="white" stroke="gray" d="M597.5,788.5A6,6,0,1,1,585.5,788.5A6,6,0,1,1,597.5,788.5"></path><path id="kity_path_333" fill="none" stroke="gray"></path></g><path id="node_outline29" fill="none" stroke="none" d="M602.5,777.5h69a5,5,0,0,1,5,5v12a5,5,0,0,1,-5,5h-69a5,5,0,0,1,-5,-5v-12a5,5,0,0,1,5,-5z"></path><g id="node_text29" fill="black"><text id="kity_text_173" text-rendering="inherit" font-size="12" dy=".8em" y="782.5" x="607.5">etcd store</text></g></g><g id="minder_node33"><g id="node_expander32" style="cursor: pointer;"><path id="kity_path_344" fill="white" stroke="gray" d="M484.5,866.5A6,6,0,1,1,472.5,866.5A6,6,0,1,1,484.5,866.5"></path><path id="kity_path_345" fill="none" stroke="gray" d="M474,866.5L483,866.5"></path></g><path id="node_outline33" fill="none" stroke="none" d="M489.5,855.5h107a5,5,0,0,1,5,5v12a5,5,0,0,1,-5,5h-107a5,5,0,0,1,-5,-5v-12a5,5,0,0,1,5,-5z"></path><g id="node_text33" fill="black"><text id="kity_text_181" text-rendering="inherit" font-size="12" dy=".8em" y="860.5" x="494.5">session manager</text></g></g><g id="minder_node34"><g id="node_expander30" style="cursor: pointer;" display="none"><path id="kity_path_338" fill="white" stroke="gray" d="M641.5,840.5A6,6,0,1,1,629.5,840.5A6,6,0,1,1,641.5,840.5"></path><path id="kity_path_339" fill="none" stroke="gray"></path></g><path id="node_outline31" fill="none" stroke="none" d="M646.5,829.5h58a5,5,0,0,1,5,5v12a5,5,0,0,1,-5,5h-58a5,5,0,0,1,-5,-5v-12a5,5,0,0,1,5,-5z"></path><g id="node_text31" fill="black"><text id="kity_text_177" text-rendering="inherit" font-size="12" dy=".8em" y="834.5" x="651.5">memory</text></g></g><g id="minder_node35"><g id="node_expander31" style="cursor: pointer;" display="none"><path id="kity_path_341" fill="white" stroke="gray" d="M641.5,892.5A6,6,0,1,1,629.5,892.5A6,6,0,1,1,641.5,892.5"></path><path id="kity_path_342" fill="none" stroke="gray"></path></g><path id="node_outline32" fill="none" stroke="none" d="M646.5,881.5h26a5,5,0,0,1,5,5v12a5,5,0,0,1,-5,5h-26a5,5,0,0,1,-5,-5v-12a5,5,0,0,1,5,-5z"></path><g id="node_text32" fill="black"><text id="kity_text_179" text-rendering="inherit" font-size="12" dy=".8em" y="886.5" x="651.5">db</text></g></g><g id="minder_node36"><g id="node_expander38" style="cursor: pointer;"><path id="kity_path_362" fill="white" stroke="gray" d="M292.5,1005.5A6,6,0,1,1,280.5,1005.5A6,6,0,1,1,292.5,1005.5"></path><path id="kity_path_363" fill="none" stroke="gray" d="M282,1005.5L291,1005.5"></path></g><path id="node_outline39" fill="rgb(238, 243, 246)" stroke="rgb(115, 161, 191)" d="M296.5,992.5h51a3,3,0,0,1,3,3v20a3,3,0,0,1,-3,3h-51a3,3,0,0,1,-3,-3v-20a3,3,0,0,1,3,-3z" stroke-width="1"></path><g id="node_text39" fill="black"><text id="kity_text_193" text-rendering="inherit" font-size="14" dy=".8em" y="998.5" x="313.5">rm</text></g></g><g id="minder_node37"><g id="node_expander35" style="cursor: pointer;" display="none"><path id="kity_path_353" fill="white" stroke="gray" d="M390.5,953.5A6,6,0,1,1,378.5,953.5A6,6,0,1,1,390.5,953.5"></path><path id="kity_path_354" fill="none" stroke="gray"></path></g><path id="node_outline36" fill="none" stroke="none" d="M395.5,942.5h47a5,5,0,0,1,5,5v12a5,5,0,0,1,-5,5h-47a5,5,0,0,1,-5,-5v-12a5,5,0,0,1,5,-5z"></path><g id="node_text36" fill="black"><text id="kity_text_187" text-rendering="inherit" font-size="12" dy=".8em" y="947.5" x="400.5">config</text></g></g><g id="minder_node38"><g id="node_expander36" style="cursor: pointer;" display="none"><path id="kity_path_356" fill="white" stroke="gray" d="M390.5,1005.5A6,6,0,1,1,378.5,1005.5A6,6,0,1,1,390.5,1005.5"></path><path id="kity_path_357" fill="none" stroke="gray"></path></g><path id="node_outline37" fill="none" stroke="none" d="M395.5,994.5h64a5,5,0,0,1,5,5v12a5,5,0,0,1,-5,5h-64a5,5,0,0,1,-5,-5v-12a5,5,0,0,1,5,-5z"></path><g id="node_text37" fill="black"><text id="kity_text_189" text-rendering="inherit" font-size="12" dy=".8em" y="999.5" x="400.5">sql parser</text></g></g><g id="minder_node39"><g id="node_expander37" style="cursor: pointer;" display="none"><path id="kity_path_359" fill="white" stroke="gray" d="M390.5,1057.5A6,6,0,1,1,378.5,1057.5A6,6,0,1,1,390.5,1057.5"></path><path id="kity_path_360" fill="none" stroke="gray"></path></g><path id="node_outline38" fill="none" stroke="none" d="M395.5,1046.5h62a5,5,0,0,1,5,5v12a5,5,0,0,1,-5,5h-62a5,5,0,0,1,-5,-5v-12a5,5,0,0,1,5,-5z"></path><g id="node_text38" fill="black"><text id="kity_text_191" text-rendering="inherit" font-size="12" dy=".8em" y="1051.5" x="400.5">undo log</text></g></g><g id="minder_node40"><g id="node_expander39" style="cursor: pointer;" display="none"><path id="kity_path_365" fill="white" stroke="gray" d="M292.5,1121.5A6,6,0,1,1,280.5,1121.5A6,6,0,1,1,292.5,1121.5"></path><path id="kity_path_366" fill="none" stroke="gray"></path></g><path id="node_outline40" fill="rgb(238, 243, 246)" stroke="rgb(115, 161, 191)" d="M296.5,1108.5h52a3,3,0,0,1,3,3v20a3,3,0,0,1,-3,3h-52a3,3,0,0,1,-3,-3v-20a3,3,0,0,1,3,-3z" stroke-width="1"></path><g id="node_text40" fill="black"><text id="kity_text_195" text-rendering="inherit" font-size="14" dy=".8em" y="1114.5" x="313.5">tm</text></g></g><g id="minder_node41"><g id="node_expander43" style="cursor: pointer;"><path id="kity_path_377" fill="white" stroke="gray" d="M292.5,1211.5A6,6,0,1,1,280.5,1211.5A6,6,0,1,1,292.5,1211.5"></path><path id="kity_path_378" fill="none" stroke="gray" d="M282,1211.5L291,1211.5"></path></g><path id="node_outline44" fill="rgb(238, 243, 246)" stroke="rgb(115, 161, 191)" d="M296.5,1198.5h86a3,3,0,0,1,3,3v20a3,3,0,0,1,-3,3h-86a3,3,0,0,1,-3,-3v-20a3,3,0,0,1,3,-3z" stroke-width="1"></path><g id="node_text44" fill="black"><text id="kity_text_203" text-rendering="inherit" font-size="14" dy=".8em" y="1204.5" x="313.5">logging</text></g></g><g id="minder_node42"><g id="node_expander42" style="cursor: pointer;"><path id="kity_path_374" fill="white" stroke="gray" d="M425.5,1211.5A6,6,0,1,1,413.5,1211.5A6,6,0,1,1,425.5,1211.5"></path><path id="kity_path_375" fill="none" stroke="gray" d="M415,1211.5L424,1211.5"></path></g><path id="node_outline43" fill="none" stroke="none" d="M430.5,1200.5h63a5,5,0,0,1,5,5v12a5,5,0,0,1,-5,5h-63a5,5,0,0,1,-5,-5v-12a5,5,0,0,1,5,-5z"></path><g id="node_text43" fill="black"><text id="kity_text_201" text-rendering="inherit" font-size="12" dy=".8em" y="1205.5" x="435.5">interface</text></g></g><g id="minder_node43"><g id="node_expander40" style="cursor: pointer;" display="none"><path id="kity_path_368" fill="white" stroke="gray" d="M538.5,1185.5A6,6,0,1,1,526.5,1185.5A6,6,0,1,1,538.5,1185.5"></path><path id="kity_path_369" fill="none" stroke="gray"></path></g><path id="node_outline41" fill="none" stroke="none" d="M543.5,1174.5h77a5,5,0,0,1,5,5v12a5,5,0,0,1,-5,5h-77a5,5,0,0,1,-5,-5v-12a5,5,0,0,1,5,-5z"></path><g id="node_text41" fill="black"><text id="kity_text_197" text-rendering="inherit" font-size="12" dy=".8em" y="1179.5" x="548.5">console log</text></g></g><g id="minder_node44"><g id="node_expander41" style="cursor: pointer;" display="none"><path id="kity_path_371" fill="white" stroke="gray" d="M538.5,1237.5A6,6,0,1,1,526.5,1237.5A6,6,0,1,1,538.5,1237.5"></path><path id="kity_path_372" fill="none" stroke="gray"></path></g><path id="node_outline42" fill="none" stroke="none" d="M543.5,1226.5h48a5,5,0,0,1,5,5v12a5,5,0,0,1,-5,5h-48a5,5,0,0,1,-5,-5v-12a5,5,0,0,1,5,-5z"></path><g id="node_text42" fill="black"><text id="kity_text_199" text-rendering="inherit" font-size="12" dy=".8em" y="1231.5" x="548.5">file log</text></g></g><g id="minder_node45"><g id="node_expander44" style="cursor: pointer;" display="none"><path id="kity_path_380" fill="white" stroke="gray" d="M292.5,1301.5A6,6,0,1,1,280.5,1301.5A6,6,0,1,1,292.5,1301.5"></path><path id="kity_path_381" fill="none" stroke="gray"></path></g><path id="node_outline45" fill="rgb(238, 243, 246)" stroke="rgb(115, 161, 191)" d="M296.5,1288.5h53a3,3,0,0,1,3,3v20a3,3,0,0,1,-3,3h-53a3,3,0,0,1,-3,-3v-20a3,3,0,0,1,3,-3z" stroke-width="1"></path><g id="node_text45" fill="black"><text id="kity_text_205" text-rendering="inherit" font-size="14" dy=".8em" y="1294.5" x="313.5">util</text></g></g></g></g></svg>